{"title":"Holby City S17E37 Spiral Staircases XviD-AFG","uid":12055024,"size":360875399,"categoryP":"video","categoryS":"tv_shows","magnet":"?xt=urn:btih:89e4532374ebfaf083f9782ac10575ee211a3cd4&amp;dn=Holby+City+S17E37+Spiral+Staircases+XviD-AFG&amp;tr=udp%3A%2F%2Ftracker.openbittorrent.com%3A80&amp;tr=udp%3A%2F%2Fopen.demonii.com%3A1337&amp;tr=udp%3A%2F%2Ftracker.coppersurfer.tk%3A6969&amp;tr=udp%3A%2F%2Fexodus.desync.com%3A6969","seeders":0,"leechers":0,"uploader":"Mulva1989","files":2,"time":1435097941,"description":"Holby City S17E37 Spiral Staircases XviD-AFG\n\nGuy and Jesse clash over Guy's surgical risk-taking. Sparks fly as duty psychiatrist Seb puts Zosia's head in a spin. Fletch is tempted by Clifford's 'victimless crime'\n\n[img]https://yuq.me/users/50/321/HVhl3ocJQP.jpg[/img]\n[img]https://yuq.me/users/50/321/8hdsZl4rwj.jpg[/img]\n\nFormat : AVI\nFormat/Info : Audio Video Interleave\nFile size : 344 MiB\nDuration : 58mn 29s\nOverall bit rate : 823 Kbps\nWriting application : Lavf56.36.100\n\nVideo\nID : 0\nFormat : xvid\nCodec ID : xvid\nDuration : 58mn 29s\nBit rate : 682 Kbps\nWidth : 640 pixels\nHeight : 360 pixels\nDisplay aspect ratio : 16:9\nFrame rate : 25.000 fps\nBits/(Pixel*Frame) : 0.118\nStream size : 285 MiB (83%)\n\nAudio\nID : 1\nFormat : MPEG Audio\nFormat version : Version 1\nFormat profile : Layer 3\nMode : Joint stereo\nMode extension : MS Stereo\nCodec ID : 55\nCodec ID/Hint : MP3\nDuration : 58mn 29s\nBit rate mode : Constant\nBit rate : 128 Kbps\nChannel(s) : 2 channels\nSampling rate : 48.0 KHz\nCompression mode : Lossy\nStream size : 53.5 MiB (16%)\nAlignment : Aligned on interleaves\nInterleave, duration : 24 ms (0.60 video frame)\nInterleave, preload duratio : 24 ms","torrent":{"xt":"urn:btih:89e4532374ebfaf083f9782ac10575ee211a3cd4","amp;dn":"Holby+City+S17E37+Spiral+Staircases+XviD-AFG","amp;tr":["udp%3A%2F%2Ftracker.openbittorrent.com%3A80","udp%3A%2F%2Fopen.demonii.com%3A1337","udp%3A%2F%2Ftracker.coppersurfer.tk%3A6969","udp%3A%2F%2Fexodus.desync.com%3A6969"],"infoHash":"89e4532374ebfaf083f9782ac10575ee211a3cd4","infoHashBuffer":{"type":"Buffer","data":[137,228,83,35,116,235,250,240,131,249,120,42,193,5,117,238,33,26,60,212]},"announce":[],"urlList":[]}}